<svg width="131" height="34" viewBox="0 0 131 34" fill="none" xmlns="http://www.w3.org/2000/svg">
<path fill-rule="evenodd" clip-rule="evenodd" d="M0.299316 13.3691V26.363H5.67617V18.1177H10.1962C12.1499 18.1177 13.8139 17.7576 15.1881 17.0374C16.5706 16.3171 17.6261 15.3113 18.3546 14.0199C19.0831 12.7284 19.4474 11.2383 19.4474 9.54951C19.4474 7.8607 19.0873 6.37058 18.367 5.07914C17.6551 3.77943 16.6203 2.76532 15.2626 2.03681C13.905 1.30003 12.2617 0.931641 10.3328 0.931641H0.299316V5.17348H9.56255V5.33131C10.4894 5.35884 11.2635 5.53555 11.885 5.86146C12.5638 6.20915 13.0688 6.70172 13.4 7.33916C13.7394 7.96832 13.9091 8.70511 13.9091 9.54951C13.9091 10.3856 13.7394 11.1266 13.4 11.7723C13.0688 12.4097 12.5638 12.9106 11.885 13.2748C11.2145 13.6308 10.3618 13.8088 9.32697 13.8088H5.67617V13.3691H0.299316ZM24.5138 26.0899C25.4658 26.5121 26.5503 26.7232 27.7672 26.7232C28.711 26.7232 29.5429 26.599 30.2632 26.3506C30.9834 26.094 31.6001 25.7422 32.1134 25.2951C32.6267 24.8398 33.0364 24.3141 33.3428 23.7181H33.4918V26.363H38.5085V13.4983C38.5085 12.3642 38.2891 11.3915 37.8504 10.5802C37.4116 9.76061 36.8114 9.09005 36.0498 8.56851C35.2965 8.04697 34.4314 7.66202 33.4545 7.41367C32.4859 7.16531 31.4718 7.04114 30.4122 7.04114C28.8889 7.04114 27.5478 7.27293 26.3889 7.73653C25.2381 8.19184 24.2985 8.84584 23.57 9.69852C22.8415 10.5429 22.3531 11.5446 22.1048 12.7036L26.9973 13.101C27.1794 12.4718 27.552 11.9503 28.1149 11.5363C28.6778 11.1141 29.4353 10.903 30.3873 10.903C31.2897 10.903 31.9851 11.1183 32.4735 11.5488C32.9702 11.9792 33.2186 12.5877 33.2186 13.3742V13.4487C33.2186 13.8543 33.0654 14.1606 32.7591 14.3676C32.4528 14.5745 31.9603 14.7318 31.2814 14.8394C30.6026 14.9388 29.7085 15.0464 28.5992 15.1623C27.6555 15.2534 26.7531 15.4107 25.8921 15.6342C25.0395 15.8577 24.2778 16.1888 23.6073 16.6276C22.9367 17.0663 22.4069 17.6458 22.0178 18.3661C21.6287 19.0863 21.4342 19.9762 21.4342 21.0359C21.4342 22.2942 21.7074 23.3455 22.2538 24.1899C22.8084 25.0261 23.5618 25.6594 24.5138 26.0899ZM31.3435 22.6129C30.7475 22.9192 30.0603 23.0724 29.2822 23.0724C28.4709 23.0724 27.8003 22.8861 27.2705 22.5136C26.749 22.1328 26.4882 21.5822 26.4882 20.862C26.4882 20.3653 26.6165 19.9514 26.8731 19.6202C27.1298 19.2808 27.4899 19.0118 27.9535 18.8131C28.4171 18.6144 28.9593 18.4695 29.5802 18.3785C29.8699 18.3371 30.1928 18.2916 30.5488 18.2419C30.9047 18.1839 31.2607 18.1218 31.6167 18.0556C31.9727 17.9811 32.2914 17.9025 32.5729 17.8197C32.8626 17.7286 33.0903 17.6293 33.2558 17.5217V19.5457C33.2558 20.2163 33.0861 20.8165 32.7467 21.3463C32.4073 21.8761 31.9396 22.2983 31.3435 22.6129ZM43.3079 33.3542C43.8957 33.4618 44.5249 33.5156 45.1954 33.5156C46.5034 33.5156 47.621 33.3045 48.5482 32.8823C49.4754 32.4684 50.2411 31.8765 50.8455 31.1066C51.4581 30.345 51.9424 29.4509 52.2983 28.4244L59.7117 7.28949H54.1113L50.1252 21.2966H49.9266L45.9777 7.28949H40.4146L47.2568 26.9094L46.9463 27.7166C46.7145 28.3126 46.4124 28.7348 46.0398 28.9832C45.6756 29.2315 45.241 29.3474 44.736 29.3309C44.2393 29.3143 43.6805 29.2108 43.0596 29.0204L41.8675 32.9692C42.2483 33.1265 42.7284 33.2549 43.3079 33.3542ZM64.8961 25.5559C66.0716 26.301 67.3837 26.6735 68.8325 26.6735C69.859 26.6735 70.7282 26.5038 71.4402 26.1644C72.1604 25.8249 72.744 25.3986 73.1911 24.8853C73.6464 24.3638 73.9982 23.8381 74.2466 23.3083H74.4701V26.363H79.6855V0.931641H74.408V10.4933H74.2466C74.0148 9.97999 73.6754 9.45845 73.2283 8.92862C72.7896 8.39052 72.2101 7.94349 71.4899 7.58752C70.7779 7.22326 69.888 7.04114 68.8201 7.04114C67.421 7.04114 66.1337 7.40539 64.9582 8.13389C63.7909 8.85412 62.8554 9.94273 62.1518 11.3997C61.4481 12.8485 61.0963 14.6656 61.0963 16.8511C61.0963 18.9787 61.4357 20.7751 62.1145 22.2404C62.8016 23.6974 63.7288 24.8026 64.8961 25.5559ZM72.6695 21.7685C72.0818 22.2321 71.3615 22.4639 70.5089 22.4639C69.6396 22.4639 68.907 22.228 68.3109 21.7561C67.7232 21.2759 67.272 20.6137 66.9574 19.7693C66.6511 18.9166 66.4979 17.9356 66.4979 16.8263C66.4979 15.7252 66.6511 14.7567 66.9574 13.9205C67.2637 13.0844 67.7149 12.4304 68.3109 11.9585C68.907 11.4867 69.6396 11.2507 70.5089 11.2507C71.3615 11.2507 72.0859 11.4784 72.6819 11.9337C73.278 12.389 73.7333 13.0347 74.0479 13.8709C74.3625 14.707 74.5198 15.6921 74.5198 16.8263C74.5198 17.9604 74.3583 18.9497 74.0355 19.7941C73.7209 20.6385 73.2656 21.2966 72.6695 21.7685ZM87.6608 25.5435C89.0764 26.3382 90.7652 26.7356 92.7272 26.7356C94.3001 26.7356 95.6867 26.4955 96.8871 26.0153C98.0958 25.5269 99.0809 24.8481 99.8425 23.9788C100.612 23.1013 101.122 22.0748 101.37 20.8993L96.4773 20.5764C96.2952 21.0566 96.0303 21.4622 95.6826 21.7933C95.3349 22.1245 94.9168 22.3728 94.4284 22.5384C93.94 22.704 93.4019 22.7868 92.8141 22.7868C91.9283 22.7868 91.1626 22.6005 90.5168 22.228C89.8711 21.8554 89.3703 21.3256 89.0143 20.6385C88.6666 19.9514 88.4928 19.136 88.4928 18.1922V18.1798H101.482V16.7269C101.482 15.1043 101.254 13.6887 100.799 12.4801C100.343 11.2631 99.7059 10.2532 98.8863 9.45017C98.0751 8.64716 97.123 8.04697 96.0303 7.6496C94.9458 7.24396 93.7744 7.04114 92.5161 7.04114C90.6451 7.04114 89.0143 7.45506 87.6235 8.2829C86.241 9.11075 85.169 10.2656 84.4073 11.7474C83.6457 13.2293 83.2649 14.9512 83.2649 16.9132C83.2649 18.9249 83.6457 20.6675 84.4073 22.141C85.169 23.6063 86.2534 24.7405 87.6608 25.5435ZM88.4977 14.9015C88.5296 14.2166 88.706 13.5916 89.0267 13.0265C89.3744 12.4056 89.8546 11.913 90.4672 11.5488C91.088 11.1762 91.8 10.99 92.603 10.99C93.3729 10.99 94.0476 11.1597 94.6271 11.4991C95.2149 11.8302 95.6743 12.2897 96.0054 12.8774C96.3366 13.4652 96.5022 14.1399 96.5022 14.9015H88.4977ZM107.119 26.0899C108.071 26.5121 109.156 26.7232 110.373 26.7232C111.316 26.7232 112.148 26.599 112.869 26.3506C113.589 26.094 114.206 25.7422 114.719 25.2951C115.232 24.8398 115.642 24.3141 115.948 23.7181H116.097V26.363H121.114V13.4983C121.114 12.3642 120.895 11.3915 120.456 10.5802C120.017 9.76061 119.417 9.09005 118.655 8.56851C117.902 8.04697 117.037 7.66202 116.06 7.41367C115.091 7.16531 114.077 7.04114 113.018 7.04114C111.494 7.04114 110.153 7.27293 108.994 7.73653C107.844 8.19184 106.904 8.84584 106.176 9.69852C105.447 10.5429 104.959 11.5446 104.71 12.7036L109.603 13.101C109.785 12.4718 110.157 11.9503 110.72 11.5363C111.283 11.1141 112.041 10.903 112.993 10.903C113.895 10.903 114.591 11.1183 115.079 11.5488C115.576 11.9792 115.824 12.5877 115.824 13.3742V13.4487C115.824 13.8543 115.671 14.1606 115.365 14.3676C115.058 14.5745 114.566 14.7318 113.887 14.8394C113.208 14.9388 112.314 15.0464 111.205 15.1623C110.261 15.2534 109.359 15.4107 108.498 15.6342C107.645 15.8577 106.883 16.1888 106.213 16.6276C105.542 17.0663 105.012 17.6458 104.623 18.3661C104.234 19.0863 104.04 19.9762 104.04 21.0359C104.04 22.2942 104.313 23.3455 104.859 24.1899C105.414 25.0261 106.167 25.6594 107.119 26.0899ZM113.949 22.6129C113.353 22.9192 112.666 23.0724 111.888 23.0724C111.076 23.0724 110.406 22.8861 109.876 22.5136C109.354 22.1328 109.094 21.5822 109.094 20.862C109.094 20.3653 109.222 19.9514 109.479 19.6202C109.735 19.2808 110.095 19.0118 110.559 18.8131C111.023 18.6144 111.565 18.4695 112.186 18.3785C112.475 18.3371 112.798 18.2916 113.154 18.2419C113.51 18.1839 113.866 18.1218 114.222 18.0556C114.578 17.9811 114.897 17.9025 115.178 17.8197C115.468 17.7286 115.696 17.6293 115.861 17.5217V19.5457C115.861 20.2163 115.692 20.8165 115.352 21.3463C115.013 21.8761 114.545 22.2983 113.949 22.6129ZM130.508 26.363V0.931641H125.218V26.363H130.508Z" fill="white"/>
</svg>
