<svg width="77" height="20" viewBox="0 0 77 20" fill="none" xmlns="http://www.w3.org/2000/svg">
<path fill-rule="evenodd" clip-rule="evenodd" d="M0.141357 8.25193V15.4992H3.27665V10.6913H5.91232C7.05155 10.6913 8.02182 10.4813 8.82314 10.0613C9.62929 9.64134 10.2448 9.05483 10.6696 8.30178C11.0944 7.54873 11.3068 6.67983 11.3068 5.69507C11.3068 4.71032 11.0968 3.84142 10.6768 3.08837C10.2617 2.33049 9.65825 1.73915 8.86659 1.31436C8.07492 0.884734 7.11671 0.669922 5.99197 0.669922H0.141357V3.47297H3.27665V3.23318H5.39098C5.99921 3.23318 6.50124 3.33697 6.89707 3.54454C7.29291 3.74728 7.58737 4.0345 7.78046 4.4062C7.97837 4.77307 8.07733 5.2027 8.07733 5.69507C8.07733 6.18262 7.97837 6.61466 7.78046 6.99119C7.58737 7.36288 7.29291 7.65493 6.89707 7.86733C6.53617 8.05892 6.08478 8.16209 5.54292 8.17684V8.25193H3.27665H2.18328H0.141357ZM14.261 15.3399C14.8162 15.5861 15.4485 15.7092 16.1581 15.7092C16.7084 15.7092 17.1936 15.6368 17.6135 15.4919C18.0335 15.3423 18.3931 15.1371 18.6924 14.8765C18.9917 14.611 19.2307 14.3044 19.4093 13.9569H19.4962V15.4992H22.4215V7.99766C22.4215 7.33633 22.2935 6.76913 22.0377 6.29606C21.7819 5.81817 21.4319 5.42716 20.9878 5.12305C20.5485 4.81893 20.044 4.59446 19.4744 4.44965C18.9096 4.30483 18.3183 4.23242 17.7004 4.23242C16.8122 4.23242 16.0302 4.36758 15.3544 4.63791C14.6834 4.90341 14.1355 5.28476 13.7107 5.78196C13.2859 6.27434 13.0011 6.85844 12.8563 7.53425L15.7092 7.76596C15.8154 7.39909 16.0326 7.09497 16.3609 6.85361C16.6891 6.60742 17.1308 6.48433 17.6859 6.48433C18.2121 6.48433 18.6176 6.60983 18.9024 6.86085C19.192 7.11187 19.3369 7.46667 19.3369 7.92526V7.9687C19.3369 8.20524 19.2476 8.38384 19.0689 8.50452C18.8903 8.62521 18.6031 8.71692 18.2073 8.77968C17.8115 8.8376 17.2901 8.90036 16.6433 8.96794C16.093 9.02104 15.5668 9.11276 15.0648 9.24309C14.5676 9.37343 14.1234 9.56652 13.7324 9.82236C13.3414 10.0782 13.0325 10.4161 12.8056 10.8361C12.5787 11.256 12.4653 11.775 12.4653 12.3929C12.4653 13.1266 12.6246 13.7397 12.9432 14.232C13.2666 14.7196 13.7059 15.0889 14.261 15.3399ZM18.2435 13.3125C17.8959 13.4911 17.4953 13.5804 17.0415 13.5804C16.5684 13.5804 16.1774 13.4718 15.8685 13.2545C15.5644 13.0325 15.4123 12.7115 15.4123 12.2915C15.4123 12.0019 15.4871 11.7605 15.6368 11.5674C15.7864 11.3695 15.9964 11.2126 16.2667 11.0968C16.5371 10.9809 16.8532 10.8964 17.2153 10.8433C17.3842 10.8192 17.5725 10.7926 17.7801 10.7637C17.9876 10.7299 18.1952 10.6937 18.4028 10.6551C18.6104 10.6116 18.7962 10.5658 18.9603 10.5175C19.1293 10.4644 19.262 10.4065 19.3586 10.3437V11.524C19.3586 11.915 19.2596 12.2649 19.0617 12.5739C18.8638 12.8828 18.5911 13.129 18.2435 13.3125ZM25.2201 19.5758C25.5628 19.6385 25.9297 19.6699 26.3207 19.6699C27.0834 19.6699 27.735 19.5468 28.2757 19.3006C28.8163 19.0593 29.2629 18.7141 29.6152 18.2652C29.9725 17.8211 30.2549 17.2997 30.4624 16.7012L34.7852 4.37724H31.5196L29.1953 12.5449H29.0794L26.7768 4.37724H23.5329L27.5226 15.8178L27.3416 16.2884C27.2065 16.636 27.0303 16.8822 26.813 17.027C26.6006 17.1718 26.3472 17.2394 26.0527 17.2298C25.7631 17.2201 25.4373 17.1598 25.0752 17.0487L24.3801 19.3513C24.6022 19.443 24.8821 19.5179 25.2201 19.5758ZM37.8083 15.0285C38.4937 15.463 39.2589 15.6802 40.1036 15.6802C40.7022 15.6802 41.2091 15.5813 41.6242 15.3833C42.0442 15.1854 42.3845 14.9368 42.6452 14.6375C42.9107 14.3334 43.1158 14.0269 43.2606 13.7179H43.391V15.4992H46.4321V0.669922H43.3548V6.24538H43.2606C43.1255 5.94609 42.9276 5.64197 42.6669 5.33303C42.411 5.01926 42.0731 4.75859 41.6532 4.55102C41.238 4.33862 40.7191 4.23242 40.0964 4.23242C39.2806 4.23242 38.5299 4.44482 37.8445 4.86962C37.1638 5.28959 36.6184 5.92437 36.208 6.77396C35.7977 7.61873 35.5926 8.67831 35.5926 9.95269C35.5926 11.1933 35.7905 12.2408 36.1863 13.0952C36.587 13.9448 37.1276 14.5893 37.8083 15.0285ZM42.341 12.8201C41.9983 13.0904 41.5783 13.2256 41.0811 13.2256C40.5743 13.2256 40.1471 13.088 39.7995 12.8128C39.4568 12.5329 39.1937 12.1467 39.0103 11.6543C38.8316 11.1571 38.7423 10.5851 38.7423 9.93821C38.7423 9.29619 38.8316 8.7314 39.0103 8.24385C39.1889 7.7563 39.4519 7.37495 39.7995 7.0998C40.1471 6.82465 40.5743 6.68707 41.0811 6.68707C41.5783 6.68707 42.0007 6.81982 42.3483 7.08532C42.6959 7.35082 42.9613 7.72734 43.1448 8.21489C43.3282 8.70244 43.4199 9.27688 43.4199 9.93821C43.4199 10.5995 43.3258 11.1764 43.1375 11.6688C42.9541 12.1612 42.6886 12.5449 42.341 12.8201ZM51.0826 15.0213C51.908 15.4847 52.8928 15.7164 54.0368 15.7164C54.954 15.7164 55.7626 15.5764 56.4625 15.2964C57.1673 15.0116 57.7417 14.6158 58.1858 14.1089C58.6348 13.5973 58.9317 12.9987 59.0765 12.3132L56.2236 12.125C56.1174 12.4049 55.9629 12.6415 55.7602 12.8346C55.5574 13.0276 55.3136 13.1725 55.0288 13.269C54.744 13.3656 54.4303 13.4138 54.0875 13.4138C53.571 13.4138 53.1245 13.3052 52.748 13.088C52.3714 12.8708 52.0794 12.5618 51.8718 12.1612C51.6691 11.7605 51.5677 11.285 51.5677 10.7347V10.7275H59.1416V9.88029C59.1416 8.93415 59.0089 8.10869 58.7434 7.40391C58.4779 6.69431 58.1062 6.10539 57.6283 5.63715C57.1552 5.16891 56.6001 4.81893 55.9629 4.58722C55.3305 4.35069 54.6475 4.23242 53.9137 4.23242C52.8228 4.23242 51.8718 4.47378 51.0608 4.95651C50.2547 5.43923 49.6296 6.11263 49.1855 6.97671C48.7414 7.84078 48.5193 8.84484 48.5193 9.9889C48.5193 11.1619 48.7414 12.1781 49.1855 13.0373C49.6296 13.8917 50.2619 14.5531 51.0826 15.0213ZM51.5706 8.81588C51.5892 8.41651 51.692 8.05205 51.8791 7.72251C52.0818 7.36047 52.3618 7.07325 52.719 6.86085C53.081 6.64363 53.4962 6.53501 53.9644 6.53501C54.4134 6.53501 54.8068 6.63397 55.1447 6.83189C55.4874 7.02498 55.7553 7.29289 55.9484 7.63562C56.1415 7.97836 56.2381 8.37178 56.2381 8.81588H51.5706ZM62.429 15.3399C62.9841 15.5861 63.6165 15.7092 64.3261 15.7092C64.8764 15.7092 65.3615 15.6368 65.7815 15.4919C66.2015 15.3423 66.5611 15.1371 66.8604 14.8765C67.1597 14.611 67.3986 14.3044 67.5772 13.9569H67.6641V15.4992H70.5894V7.99766C70.5894 7.33633 70.4615 6.76913 70.2057 6.29606C69.9498 5.81817 69.5998 5.42716 69.1557 5.12305C68.7165 4.81893 68.212 4.59446 67.6424 4.44965C67.0776 4.30483 66.4863 4.23242 65.8684 4.23242C64.9802 4.23242 64.1982 4.36758 63.5224 4.63791C62.8514 4.90341 62.3035 5.28476 61.8787 5.78196C61.4539 6.27434 61.1691 6.85844 61.0243 7.53425L63.8772 7.76596C63.9834 7.39909 64.2006 7.09497 64.5288 6.85361C64.8571 6.60742 65.2988 6.48433 65.8539 6.48433C66.3801 6.48433 66.7856 6.60983 67.0704 6.86085C67.36 7.11187 67.5048 7.46667 67.5048 7.92526V7.9687C67.5048 8.20524 67.4155 8.38384 67.2369 8.50452C67.0583 8.62521 66.7711 8.71692 66.3753 8.77968C65.9794 8.8376 65.4581 8.90036 64.8112 8.96794C64.2609 9.02104 63.7348 9.11276 63.2327 9.24309C62.7355 9.37343 62.2914 9.56652 61.9004 9.82236C61.5094 10.0782 61.2005 10.4161 60.9736 10.8361C60.7467 11.256 60.6333 11.775 60.6333 12.3929C60.6333 13.1266 60.7926 13.7397 61.1111 14.232C61.4346 14.7196 61.8739 15.0889 62.429 15.3399ZM66.4115 13.3125C66.0639 13.4911 65.6632 13.5804 65.2095 13.5804C64.7364 13.5804 64.3454 13.4718 64.0365 13.2545C63.7323 13.0325 63.5803 12.7115 63.5803 12.2915C63.5803 12.0019 63.6551 11.7605 63.8047 11.5674C63.9544 11.3695 64.1644 11.2126 64.4347 11.0968C64.705 10.9809 65.0212 10.8964 65.3833 10.8433C65.5522 10.8192 65.7405 10.7926 65.948 10.7637C66.1556 10.7299 66.3632 10.6937 66.5708 10.6551C66.7783 10.6116 66.9642 10.5658 67.1283 10.5175C67.2972 10.4644 67.43 10.4065 67.5265 10.3437V11.524C67.5265 11.915 67.4276 12.2649 67.2297 12.5739C67.0318 12.8828 66.759 13.129 66.4115 13.3125ZM76.0671 15.4992V0.669922H72.9825V15.4992H76.0671Z" fill="white"/>
</svg>
