<svg width="74" height="25" viewBox="0 0 74 25" fill="none" xmlns="http://www.w3.org/2000/svg">
<path d="M17.426 2.36719C14.9542 2.36719 12.6123 3.47473 11.0432 5.38438L8.71298 8.22105L6.38275 5.3834C4.81365 3.47375 2.47172 2.36719 0 2.36719L6.76039 10.5981L0 18.829C2.47172 18.829 4.81365 17.7225 6.38275 15.8118L8.71298 12.9742L11.0432 15.8109C12.6123 17.7215 14.9542 18.8281 17.426 18.8281L10.6656 10.5981L17.426 2.36719Z" fill="#1C1C93"/>
<path d="M24.1991 4.69336C20.453 4.69336 17.266 6.75231 17.266 6.75231C18.0271 7.87546 19.4489 8.34775 20.7282 7.89693C21.7176 7.54857 22.9989 7.23826 24.4196 7.23826C27.6476 7.23826 28.0428 8.43753 28.0428 11.0624V12.4949C26.662 11.5806 24.5416 10.7853 22.428 10.7853C18.6663 10.7853 17.1147 12.8589 17.1147 14.9325C17.1147 17.0061 18.5267 19.0728 22.428 19.0728C24.5416 19.0728 26.6611 18.2854 28.0428 17.371V18.8133H31.1468V11.0615C31.1468 7.22265 29.6275 4.69336 24.1981 4.69336H24.1991ZM28.0438 15.2194C26.8426 16.1552 25.0744 17.0051 23.2048 17.0051C21.5156 17.0051 20.2207 16.043 20.2207 14.9315C20.2207 13.8201 21.0463 12.855 23.2048 12.855C25.0754 12.855 26.8435 13.7254 28.0438 14.6612V15.2184V15.2194Z" fill="#1C1C93"/>
<path d="M32.906 0V18.8135H36.01V3.10404C36.01 1.38955 34.6205 0 32.906 0Z" fill="#1C1C93"/>
<path d="M37.9734 0V3.10404H41.0774C41.0774 1.38955 39.6879 0 37.9734 0Z" fill="#1C1C93"/>
<path d="M41.0774 4.96094H37.9734V18.8125H41.0774V4.96094Z" fill="#1C1C93"/>
<path d="M53.7025 8.06693V13.2143C52.6232 14.8224 50.7282 16.3408 48.7005 16.3408C45.8785 16.3408 45.8785 13.0699 45.8785 10.9778V8.06791C45.8785 6.35342 44.4889 4.96387 42.7744 4.96387V10.9787C42.7744 16.9936 44.6763 19.074 47.9813 19.074C50.2257 19.074 52.4817 17.5967 53.7015 16.0773V18.8154C53.7015 20.6265 52.7803 22.2347 49.9271 22.2395C48.6819 22.2415 47.6603 21.978 46.8728 21.6502C45.5408 21.0959 44.0049 21.4335 43.0486 22.5147C43.0486 22.5147 45.0988 24.842 49.9993 24.842C54.8998 24.842 56.8055 22.3625 56.8055 18.8154V4.96387C55.091 4.96387 53.7015 6.35342 53.7015 8.06791L53.7025 8.06693Z" fill="#1C1C93"/>
<path d="M65.5683 4.70215C59.9974 4.70215 58.1238 8.88641 58.1238 11.887C58.1238 13.5878 58.7249 15.6663 60.2589 17.1495L57.8877 20.8127C59.7398 20.8127 61.4865 20.0047 62.6857 18.622C63.5113 18.907 64.4676 19.0709 65.5673 19.0709C71.1382 19.0709 73.0117 14.8886 73.0117 11.886C73.0117 8.88348 71.1382 4.70117 65.5673 4.70117L65.5683 4.70215ZM65.5683 16.6597C62.2574 16.6597 61.0249 13.9225 61.0249 11.888C61.0249 9.85343 62.2574 7.11629 65.5683 7.11629C68.8792 7.11629 70.1116 9.85245 70.1116 11.888C70.1116 13.9235 68.8792 16.6597 65.5683 16.6597Z" fill="#1C1C93"/>
</svg>
