<svg width="131" height="34" viewBox="0 0 131 34" fill="none" xmlns="http://www.w3.org/2000/svg">
<path fill-rule="evenodd" clip-rule="evenodd" d="M0.5 13.3691V26.363H5.87685V18.1177H10.3969C12.3506 18.1177 14.0146 17.7576 15.3888 17.0374C16.7713 16.3171 17.8268 15.3113 18.5553 14.0199C19.2838 12.7284 19.6481 11.2383 19.6481 9.54951C19.6481 7.8607 19.2879 6.37058 18.5677 5.07914C17.8558 3.77943 16.821 2.76532 15.4633 2.03681C14.1056 1.30003 12.4624 0.931641 10.5335 0.931641H0.5V5.17348H9.76324V5.33131C10.69 5.35884 11.4642 5.53555 12.0857 5.86146C12.7645 6.20915 13.2695 6.70172 13.6006 7.33916C13.9401 7.96832 14.1098 8.70511 14.1098 9.54951C14.1098 10.3856 13.9401 11.1266 13.6006 11.7723C13.2695 12.4097 12.7645 12.9106 12.0857 13.2748C11.4151 13.6308 10.5625 13.8088 9.52765 13.8088H5.87685V13.3691H0.5ZM24.7145 26.0899C25.6665 26.5121 26.751 26.7232 27.9679 26.7232C28.9116 26.7232 29.7436 26.599 30.4639 26.3506C31.1841 26.094 31.8008 25.7422 32.3141 25.2951C32.8273 24.8398 33.2371 24.3141 33.5434 23.7181H33.6924V26.363H38.7092V13.4983C38.7092 12.3642 38.4898 11.3915 38.0511 10.5802C37.6123 9.76061 37.0121 9.09005 36.2505 8.56851C35.4972 8.04697 34.632 7.66202 33.6552 7.41367C32.6866 7.16531 31.6725 7.04114 30.6129 7.04114C29.0896 7.04114 27.7485 7.27293 26.5895 7.73653C25.4388 8.19184 24.4992 8.84584 23.7707 9.69852C23.0422 10.5429 22.5538 11.5446 22.3054 12.7036L27.198 13.101C27.3801 12.4718 27.7527 11.9503 28.3156 11.5363C28.8785 11.1141 29.636 10.903 30.588 10.903C31.4904 10.903 32.1858 11.1183 32.6742 11.5488C33.1709 11.9792 33.4193 12.5877 33.4193 13.3742V13.4487C33.4193 13.8543 33.2661 14.1606 32.9598 14.3676C32.6535 14.5745 32.1609 14.7318 31.4821 14.8394C30.8033 14.9388 29.9092 15.0464 28.7999 15.1623C27.8561 15.2534 26.9538 15.4107 26.0928 15.6342C25.2401 15.8577 24.4785 16.1888 23.808 16.6276C23.1374 17.0663 22.6076 17.6458 22.2185 18.3661C21.8294 19.0863 21.6349 19.9762 21.6349 21.0359C21.6349 22.2942 21.9081 23.3455 22.4545 24.1899C23.0091 25.0261 23.7624 25.6594 24.7145 26.0899ZM31.5442 22.6129C30.9481 22.9192 30.261 23.0724 29.4829 23.0724C28.6716 23.0724 28.001 22.8861 27.4712 22.5136C26.9496 22.1328 26.6889 21.5822 26.6889 20.862C26.6889 20.3653 26.8172 19.9514 27.0738 19.6202C27.3305 19.2808 27.6906 19.0118 28.1542 18.8131C28.6178 18.6144 29.16 18.4695 29.7809 18.3785C30.0706 18.3371 30.3935 18.2916 30.7495 18.2419C31.1054 18.1839 31.4614 18.1218 31.8174 18.0556C32.1734 17.9811 32.4921 17.9025 32.7735 17.8197C33.0633 17.7286 33.2909 17.6293 33.4565 17.5217V19.5457C33.4565 20.2163 33.2868 20.8165 32.9474 21.3463C32.608 21.8761 32.1402 22.2983 31.5442 22.6129ZM43.5086 33.3542C44.0964 33.4618 44.7256 33.5156 45.3961 33.5156C46.7041 33.5156 47.8217 33.3045 48.7489 32.8823C49.6761 32.4684 50.4418 31.8765 51.0462 31.1066C51.6588 30.345 52.143 29.4509 52.499 28.4244L59.9124 7.28949H54.312L50.3259 21.2966H50.1272L46.1784 7.28949H40.6153L47.4574 26.9094L47.147 27.7166C46.9152 28.3126 46.613 28.7348 46.2405 28.9832C45.8763 29.2315 45.4416 29.3474 44.9367 29.3309C44.4399 29.3143 43.8811 29.2108 43.2603 29.0204L42.0682 32.9692C42.449 33.1265 42.9291 33.2549 43.5086 33.3542ZM65.0967 25.5559C66.2723 26.301 67.5844 26.6735 69.0331 26.6735C70.0597 26.6735 70.9289 26.5038 71.6409 26.1644C72.3611 25.8249 72.9447 25.3986 73.3918 24.8853C73.8471 24.3638 74.1989 23.8381 74.4473 23.3083H74.6708V26.363H79.8862V0.931641H74.6087V10.4933H74.4473C74.2155 9.97999 73.876 9.45845 73.429 8.92862C72.9902 8.39052 72.4108 7.94349 71.6905 7.58752C70.9786 7.22326 70.0887 7.04114 69.0207 7.04114C67.6217 7.04114 66.3344 7.40539 65.1588 8.13389C63.9916 8.85412 63.0561 9.94273 62.3524 11.3997C61.6488 12.8485 61.2969 14.6656 61.2969 16.8511C61.2969 18.9787 61.6364 20.7751 62.3152 22.2404C63.0023 23.6974 63.9295 24.8026 65.0967 25.5559ZM72.8702 21.7685C72.2824 22.2321 71.5622 22.4639 70.7095 22.4639C69.8403 22.4639 69.1077 22.228 68.5116 21.7561C67.9238 21.2759 67.4727 20.6137 67.1581 19.7693C66.8518 18.9166 66.6986 17.9356 66.6986 16.8263C66.6986 15.7252 66.8518 14.7567 67.1581 13.9205C67.4644 13.0844 67.9156 12.4304 68.5116 11.9585C69.1077 11.4867 69.8403 11.2507 70.7095 11.2507C71.5622 11.2507 72.2866 11.4784 72.8826 11.9337C73.4787 12.389 73.934 13.0347 74.2486 13.8709C74.5632 14.707 74.7204 15.6921 74.7204 16.8263C74.7204 17.9604 74.559 18.9497 74.2362 19.7941C73.9216 20.6385 73.4663 21.2966 72.8702 21.7685ZM87.8615 25.5435C89.2771 26.3382 90.9659 26.7356 92.9279 26.7356C94.5008 26.7356 95.8874 26.4955 97.0878 26.0153C98.2964 25.5269 99.2816 24.8481 100.043 23.9788C100.813 23.1013 101.322 22.0748 101.571 20.8993L96.678 20.5764C96.4959 21.0566 96.231 21.4622 95.8833 21.7933C95.5356 22.1245 95.1175 22.3728 94.6291 22.5384C94.1407 22.704 93.6026 22.7868 93.0148 22.7868C92.129 22.7868 91.3632 22.6005 90.7175 22.228C90.0718 21.8554 89.571 21.3256 89.215 20.6385C88.8673 19.9514 88.6934 19.136 88.6934 18.1922V18.1798H101.682V16.7269C101.682 15.1043 101.455 13.6887 100.999 12.4801C100.544 11.2631 99.9066 10.2532 99.087 9.45017C98.2757 8.64716 97.3237 8.04697 96.231 7.6496C95.1465 7.24396 93.9751 7.04114 92.7168 7.04114C90.8458 7.04114 89.215 7.45506 87.8242 8.2829C86.4417 9.11075 85.3696 10.2656 84.608 11.7474C83.8464 13.2293 83.4656 14.9512 83.4656 16.9132C83.4656 18.9249 83.8464 20.6675 84.608 22.141C85.3696 23.6063 86.4541 24.7405 87.8615 25.5435ZM88.6984 14.9015C88.7303 14.2166 88.9066 13.5916 89.2274 13.0265C89.5751 12.4056 90.0552 11.913 90.6678 11.5488C91.2887 11.1762 92.0007 10.99 92.8037 10.99C93.5736 10.99 94.2483 11.1597 94.8278 11.4991C95.4155 11.8302 95.875 12.2897 96.2061 12.8774C96.5373 13.4652 96.7028 14.1399 96.7028 14.9015H88.6984ZM107.32 26.0899C108.272 26.5121 109.356 26.7232 110.573 26.7232C111.517 26.7232 112.349 26.599 113.069 26.3506C113.79 26.094 114.406 25.7422 114.92 25.2951C115.433 24.8398 115.843 24.3141 116.149 23.7181H116.298V26.363H121.315V13.4983C121.315 12.3642 121.095 11.3915 120.657 10.5802C120.218 9.76061 119.618 9.09005 118.856 8.56851C118.103 8.04697 117.238 7.66202 116.261 7.41367C115.292 7.16531 114.278 7.04114 113.218 7.04114C111.695 7.04114 110.354 7.27293 109.195 7.73653C108.044 8.19184 107.105 8.84584 106.376 9.69852C105.648 10.5429 105.159 11.5446 104.911 12.7036L109.803 13.101C109.986 12.4718 110.358 11.9503 110.921 11.5363C111.484 11.1141 112.241 10.903 113.194 10.903C114.096 10.903 114.791 11.1183 115.28 11.5488C115.776 11.9792 116.025 12.5877 116.025 13.3742V13.4487C116.025 13.8543 115.872 14.1606 115.565 14.3676C115.259 14.5745 114.766 14.7318 114.088 14.8394C113.409 14.9388 112.515 15.0464 111.405 15.1623C110.462 15.2534 109.559 15.4107 108.698 15.6342C107.846 15.8577 107.084 16.1888 106.413 16.6276C105.743 17.0663 105.213 17.6458 104.824 18.3661C104.435 19.0863 104.24 19.9762 104.24 21.0359C104.24 22.2942 104.514 23.3455 105.06 24.1899C105.615 25.0261 106.368 25.6594 107.32 26.0899ZM114.15 22.6129C113.554 22.9192 112.867 23.0724 112.088 23.0724C111.277 23.0724 110.606 22.8861 110.077 22.5136C109.555 22.1328 109.294 21.5822 109.294 20.862C109.294 20.3653 109.423 19.9514 109.679 19.6202C109.936 19.2808 110.296 19.0118 110.76 18.8131C111.223 18.6144 111.765 18.4695 112.386 18.3785C112.676 18.3371 112.999 18.2916 113.355 18.2419C113.711 18.1839 114.067 18.1218 114.423 18.0556C114.779 17.9811 115.098 17.9025 115.379 17.8197C115.669 17.7286 115.896 17.6293 116.062 17.5217V19.5457C116.062 20.2163 115.892 20.8165 115.553 21.3463C115.213 21.8761 114.746 22.2983 114.15 22.6129ZM130.709 26.363V0.931641H125.419V26.363H130.709Z" fill="white"/>
</svg>
