<svg width="22" height="16" viewBox="0 0 22 16" fill="none" xmlns="http://www.w3.org/2000/svg">
<rect x="0.219604" y="0.793945" width="21.0314" height="15.0224" rx="1.20179" fill="white"/>
<mask id="mask0_1360_46826" style="mask-type:luminance" maskUnits="userSpaceOnUse" x="0" y="0" width="22" height="16">
<rect x="0.219604" y="0.793945" width="21.0314" height="15.0224" rx="1.20179" fill="white"/>
</mask>
<g mask="url(#mask0_1360_46826)">
<path fill-rule="evenodd" clip-rule="evenodd" d="M21.251 0.793945H0.219604V1.79544H21.251V0.793945ZM21.251 2.79674H0.219604V3.79823H21.251V2.79674ZM0.219604 4.80012H21.251V5.80161H0.219604V4.80012ZM21.251 6.80291H0.219604V7.80441H21.251V6.80291ZM0.219604 8.80571H21.251V9.8072H0.219604V8.80571ZM21.251 10.8091H0.219604V11.8106H21.251V10.8091ZM0.219604 12.8119H21.251V13.8134H0.219604V12.8119ZM21.251 14.8147H0.219604V15.8162H21.251V14.8147Z" fill="#D02F44"/>
<rect x="0.219604" y="0.793945" width="9.01345" height="7.01046" fill="#46467F"/>
<g filter="url(#filter0_d_1360_46826)">
<path fill-rule="evenodd" clip-rule="evenodd" d="M2.22256 2.29616C2.22256 2.57271 1.99837 2.7969 1.72182 2.7969C1.44526 2.7969 1.22107 2.57271 1.22107 2.29616C1.22107 2.0196 1.44526 1.79541 1.72182 1.79541C1.99837 1.79541 2.22256 2.0196 2.22256 2.29616ZM4.22558 2.29638C4.22558 2.57294 4.00139 2.79713 3.72484 2.79713C3.44828 2.79713 3.22409 2.57294 3.22409 2.29638C3.22409 2.01983 3.44828 1.79564 3.72484 1.79564C4.00139 1.79564 4.22558 2.01983 4.22558 2.29638ZM5.72778 2.79713C6.00433 2.79713 6.22852 2.57294 6.22852 2.29638C6.22852 2.01983 6.00433 1.79564 5.72778 1.79564C5.45122 1.79564 5.22703 2.01983 5.22703 2.29638C5.22703 2.57294 5.45122 2.79713 5.72778 2.79713ZM8.23154 2.29638C8.23154 2.57294 8.00735 2.79713 7.73079 2.79713C7.45424 2.79713 7.23004 2.57294 7.23004 2.29638C7.23004 2.01983 7.45424 1.79564 7.73079 1.79564C8.00735 1.79564 8.23154 2.01983 8.23154 2.29638ZM2.72329 3.79882C2.99985 3.79882 3.22404 3.57463 3.22404 3.29807C3.22404 3.02152 2.99985 2.79733 2.72329 2.79733C2.44674 2.79733 2.22255 3.02152 2.22255 3.29807C2.22255 3.57463 2.44674 3.79882 2.72329 3.79882ZM5.22705 3.29807C5.22705 3.57463 5.00286 3.79882 4.72631 3.79882C4.44975 3.79882 4.22556 3.57463 4.22556 3.29807C4.22556 3.02152 4.44975 2.79733 4.72631 2.79733C5.00286 2.79733 5.22705 3.02152 5.22705 3.29807ZM6.72932 3.79882C7.00588 3.79882 7.23007 3.57463 7.23007 3.29807C7.23007 3.02152 7.00588 2.79733 6.72932 2.79733C6.45276 2.79733 6.22857 3.02152 6.22857 3.29807C6.22857 3.57463 6.45276 3.79882 6.72932 3.79882ZM8.23154 4.29918C8.23154 4.57573 8.00735 4.79992 7.73079 4.79992C7.45424 4.79992 7.23004 4.57573 7.23004 4.29918C7.23004 4.02262 7.45424 3.79843 7.73079 3.79843C8.00735 3.79843 8.23154 4.02262 8.23154 4.29918ZM5.72778 4.79992C6.00433 4.79992 6.22852 4.57573 6.22852 4.29918C6.22852 4.02262 6.00433 3.79843 5.72778 3.79843C5.45122 3.79843 5.22703 4.02262 5.22703 4.29918C5.22703 4.57573 5.45122 4.79992 5.72778 4.79992ZM4.22558 4.29918C4.22558 4.57573 4.00139 4.79992 3.72484 4.79992C3.44828 4.79992 3.22409 4.57573 3.22409 4.29918C3.22409 4.02262 3.44828 3.79843 3.72484 3.79843C4.00139 3.79843 4.22558 4.02262 4.22558 4.29918ZM1.72182 4.79992C1.99838 4.79992 2.22257 4.57573 2.22257 4.29918C2.22257 4.02262 1.99838 3.79843 1.72182 3.79843C1.44527 3.79843 1.22107 4.02262 1.22107 4.29918C1.22107 4.57573 1.44527 4.79992 1.72182 4.79992ZM3.22404 5.30087C3.22404 5.57742 2.99985 5.80161 2.72329 5.80161C2.44674 5.80161 2.22255 5.57742 2.22255 5.30087C2.22255 5.02431 2.44674 4.80012 2.72329 4.80012C2.99985 4.80012 3.22404 5.02431 3.22404 5.30087ZM4.72631 5.80161C5.00286 5.80161 5.22705 5.57742 5.22705 5.30087C5.22705 5.02431 5.00286 4.80012 4.72631 4.80012C4.44975 4.80012 4.22556 5.02431 4.22556 5.30087C4.22556 5.57742 4.44975 5.80161 4.72631 5.80161ZM7.23007 5.30087C7.23007 5.57742 7.00588 5.80161 6.72932 5.80161C6.45276 5.80161 6.22857 5.57742 6.22857 5.30087C6.22857 5.02431 6.45276 4.80012 6.72932 4.80012C7.00588 4.80012 7.23007 5.02431 7.23007 5.30087ZM7.73079 6.80331C8.00735 6.80331 8.23154 6.57911 8.23154 6.30256C8.23154 6.026 8.00735 5.80181 7.73079 5.80181C7.45424 5.80181 7.23004 6.026 7.23004 6.30256C7.23004 6.57911 7.45424 6.80331 7.73079 6.80331ZM6.22852 6.30256C6.22852 6.57911 6.00433 6.80331 5.72778 6.80331C5.45122 6.80331 5.22703 6.57911 5.22703 6.30256C5.22703 6.026 5.45122 5.80181 5.72778 5.80181C6.00433 5.80181 6.22852 6.026 6.22852 6.30256ZM3.72484 6.80331C4.00139 6.80331 4.22558 6.57911 4.22558 6.30256C4.22558 6.026 4.00139 5.80181 3.72484 5.80181C3.44828 5.80181 3.22409 6.026 3.22409 6.30256C3.22409 6.57911 3.44828 6.80331 3.72484 6.80331ZM2.22257 6.30256C2.22257 6.57911 1.99838 6.80331 1.72182 6.80331C1.44527 6.80331 1.22107 6.57911 1.22107 6.30256C1.22107 6.026 1.44527 5.80181 1.72182 5.80181C1.99838 5.80181 2.22257 6.026 2.22257 6.30256Z" fill="url(#paint0_linear_1360_46826)"/>
</g>
</g>
<defs>
<filter id="filter0_d_1360_46826" x="1.22107" y="1.79541" width="7.0105" height="5.60871" filterUnits="userSpaceOnUse" color-interpolation-filters="sRGB">
<feFlood flood-opacity="0" result="BackgroundImageFix"/>
<feColorMatrix in="SourceAlpha" type="matrix" values="0 0 0 0 0 0 0 0 0 0 0 0 0 0 0 0 0 0 127 0" result="hardAlpha"/>
<feOffset dy="0.600897"/>
<feColorMatrix type="matrix" values="0 0 0 0 0 0 0 0 0 0 0 0 0 0 0 0 0 0 0.06 0"/>
<feBlend mode="normal" in2="BackgroundImageFix" result="effect1_dropShadow_1360_46826"/>
<feBlend mode="normal" in="SourceGraphic" in2="effect1_dropShadow_1360_46826" result="shape"/>
</filter>
<linearGradient id="paint0_linear_1360_46826" x1="1.22107" y1="1.79541" x2="1.22107" y2="6.80308" gradientUnits="userSpaceOnUse">
<stop stop-color="white"/>
<stop offset="1" stop-color="#F0F0F0"/>
</linearGradient>
</defs>
</svg>
